<svg width="46" height="46" viewBox="0 0 46 46" fill="none" xmlns="http://www.w3.org/2000/svg">
<path d="M31.0237 17.7006C31.7908 16.9856 31.8331 15.7842 31.1181 15.0171C30.4032 14.25 29.2017 14.2077 28.4346 14.9226L22.8787 20.1008L17.7005 14.545C16.9856 13.7779 15.7841 13.7356 15.017 14.4506C14.2499 15.1655 14.2077 16.367 14.9226 17.1341L20.1008 22.6899L14.545 27.8681C13.7779 28.5831 13.7356 29.7846 14.4506 30.5517C15.1655 31.3188 16.367 31.361 17.1341 30.6461L22.6899 25.4679L27.8681 31.0237C28.5831 31.7908 29.7845 31.8331 30.5516 31.1181C31.3187 30.4032 31.361 29.2017 30.646 28.4346L25.4678 22.8788L31.0237 17.7006Z" fill="currentColor"/>
<path fill-rule="evenodd" clip-rule="evenodd" d="M1.89868 22.7845C1.89868 11.2496 11.2496 1.8987 22.7844 1.8987C34.3193 1.8987 43.6702 11.2496 43.6702 22.7845C43.6702 34.3193 34.3193 43.6702 22.7844 43.6702C11.2496 43.6702 1.89868 34.3193 1.89868 22.7845ZM22.7844 39.8728C13.3468 39.8728 5.69609 32.2221 5.69609 22.7845C5.69609 13.3468 13.3468 5.69611 22.7844 5.69611C32.2221 5.69611 39.8728 13.3468 39.8728 22.7845C39.8728 32.2221 32.2221 39.8728 22.7844 39.8728Z" fill="currentColor"/>
</svg>
