<?xml version="1.0" encoding="UTF-8"?>
<svg version="1.1" xmlns="http://www.w3.org/2000/svg" width="512" height="512">
<path d="M0 0 C1.21055749 -0.00525911 1.21055749 -0.00525911 2.44557068 -0.01062447 C5.16094171 -0.0199587 7.87609923 -0.01500994 10.5914793 -0.01015663 C12.55349979 -0.01389187 14.5155188 -0.01849288 16.47753543 -0.02388728 C21.8779599 -0.03614829 27.27832256 -0.03585316 32.67875779 -0.03349853 C38.49960962 -0.03309114 44.32044143 -0.04412198 50.14128399 -0.05361366 C61.54870178 -0.07024155 72.95609891 -0.07572401 84.36352781 -0.07683842 C93.63393895 -0.07778803 102.90434326 -0.08189397 112.17475224 -0.08823967 C114.84250329 -0.09002867 117.51025434 -0.09181437 120.1780054 -0.09358943 C120.84120265 -0.09403152 121.5043999 -0.09447362 122.18769404 -0.09492911 C140.84428817 -0.1072389 159.50087997 -0.1151301 178.15747833 -0.11424255 C178.86098799 -0.1142114 179.56449764 -0.11418024 180.28932578 -0.11414814 C183.8550654 -0.11398192 187.42080502 -0.11378384 190.98654465 -0.11357872 C192.04881165 -0.11351889 192.04881165 -0.11351889 193.1325386 -0.11345784 C194.56464739 -0.11337697 195.99675618 -0.11329337 197.42886498 -0.11320706 C219.71101638 -0.1119815 241.99310691 -0.12699502 264.2752409 -0.15435219 C289.30489925 -0.18506994 314.33451761 -0.20228487 339.364196 -0.20042574 C352.61847959 -0.19968441 365.87269745 -0.20528457 379.12696552 -0.22678185 C390.41121235 -0.2449663 401.69535942 -0.24936347 412.97961453 -0.235763 C418.73854298 -0.2292196 424.49727991 -0.2291657 430.2561903 -0.2464695 C435.52714831 -0.26214447 440.79776204 -0.25939362 446.06871136 -0.24190123 C447.97649933 -0.23881904 449.88431263 -0.24250938 451.79207072 -0.25362138 C454.38478261 -0.26772392 456.97628378 -0.2571712 459.56895447 -0.24050903 C460.31017755 -0.25044539 461.05140063 -0.26038175 461.81508502 -0.27061921 C468.39601421 -0.18116403 473.51878191 2.07942528 478.43417645 6.44086266 C479.38163738 7.55654625 479.38163738 7.55654625 480.34823895 8.69476891 C480.99534832 9.43597984 481.6424577 10.17719078 482.30917645 10.94086266 C485.85299795 15.87392874 486.26315892 20.34065606 486.23050785 26.28402996 C486.23401393 27.09106828 486.23752 27.89810661 486.24113232 28.72960064 C486.25046655 31.44497167 486.24551779 34.16012919 486.24066448 36.87550926 C486.24439972 38.83752975 486.24900073 40.79954876 486.25439513 42.76156539 C486.26665614 48.16198986 486.26636101 53.56235252 486.26400638 58.96278775 C486.26359899 64.78363958 486.27462983 70.60447139 486.28412151 76.42531395 C486.3007494 87.83273175 486.30623186 99.24012887 486.30734627 110.64755777 C486.30829588 119.91796891 486.31240182 129.18837322 486.31874752 138.4587822 C486.32053652 141.12653325 486.32232222 143.7942843 486.32409728 146.46203536 C486.32476042 147.45683123 486.32476042 147.45683123 486.32543696 148.471724 C486.33774675 167.12831813 486.34563795 185.78490993 486.3447504 204.44150829 C486.34471925 205.14501795 486.34468809 205.84852761 486.34465599 206.57335574 C486.34448977 210.13909536 486.34429169 213.70483498 486.34408657 217.27057461 C486.34402674 218.33284161 486.34402674 218.33284161 486.34396569 219.41656856 C486.34388482 220.84867735 486.34380122 222.28078614 486.34371491 223.71289494 C486.34248935 245.99504634 486.35750287 268.27713687 486.38486004 290.55927086 C486.41557779 315.58892921 486.43279272 340.61854757 486.43093359 365.64822596 C486.43019227 378.90250955 486.43579242 392.15672741 486.4572897 405.41099548 C486.47547415 416.69524231 486.47987132 427.97938938 486.46627085 439.26364449 C486.45972746 445.02257294 486.45967355 450.78130987 486.47697735 456.54022026 C486.49265232 461.81117827 486.48990147 467.081792 486.47240908 472.35274132 C486.46932689 474.26052929 486.47301723 476.16834259 486.48412924 478.07610068 C486.49823178 480.66881257 486.48767906 483.26031374 486.47101688 485.85298443 C486.48095324 486.59420751 486.4908896 487.3354306 486.50112706 488.09911498 C486.41167188 494.68004417 484.15108257 499.80281187 479.7896452 504.71820641 C478.6739616 505.66566734 478.6739616 505.66566734 477.53573895 506.63226891 C476.79452801 507.27937828 476.05331707 507.92648766 475.2896452 508.59320641 C470.35657911 512.13702791 465.88985179 512.54718889 459.94647789 512.51453781 C459.13943957 512.51804389 458.33240124 512.52154996 457.50090721 512.52516228 C454.78553618 512.53449651 452.07037866 512.52954775 449.35499859 512.52469444 C447.3929781 512.52842968 445.43095909 512.53303069 443.46894246 512.53842509 C438.06851799 512.5506861 432.66815533 512.55039097 427.2677201 512.54803634 C421.44686827 512.54762895 415.62603646 512.55865979 409.8051939 512.56815147 C398.39777611 512.58477936 386.99037898 512.59026182 375.58295008 512.59137623 C366.31253894 512.59232584 357.04213463 512.59643178 347.77172565 512.60277748 C345.1039746 512.60456648 342.43622355 512.60635218 339.76847249 512.60812724 C339.10527524 512.60856933 338.44207799 512.60901143 337.75878385 512.60946692 C319.10218972 512.62177671 300.44559792 512.62966791 281.78899956 512.62878036 C281.0854899 512.62874921 280.38198025 512.62871805 279.65715211 512.62868595 C276.09141249 512.62851973 272.52567287 512.62832165 268.95993324 512.62811653 C267.89766624 512.6280567 267.89766624 512.6280567 266.81393929 512.62799565 C265.3818305 512.62791478 263.94972171 512.62783118 262.51761291 512.62774487 C240.23546151 512.62651931 217.95337098 512.64153283 195.67123699 512.66889 C170.64157864 512.69960775 145.61196028 512.71682268 120.58228189 512.71496356 C107.3279983 512.71422223 94.07378044 512.71982238 80.81951237 512.74131966 C69.53526554 512.75950411 58.25111847 512.76390128 46.96686336 512.75030081 C41.20793491 512.74375742 35.44919798 512.74370351 29.69028759 512.76100731 C24.41932958 512.77668228 19.14871585 512.77393143 13.87776653 512.75643905 C11.96997856 512.75335685 10.06216526 512.75704719 8.15440717 512.7681592 C5.56169528 512.78226174 2.97019411 512.77170902 0.37752342 512.75504684 C-0.36369966 512.7649832 -1.10492274 512.77491956 -1.86860713 512.78515702 C-8.44953632 512.69570184 -13.57230402 510.43511253 -18.48769855 506.07367516 C-19.43515949 504.95799156 -19.43515949 504.95799156 -20.40176105 503.81976891 C-21.04887043 503.07855797 -21.6959798 502.33734703 -22.36269855 501.57367516 C-25.90652006 496.64060907 -26.31668103 492.17388175 -26.28402996 486.23050785 C-26.28753604 485.42346953 -26.29104211 484.6164312 -26.29465443 483.78493717 C-26.30398866 481.06956614 -26.2990399 478.35440862 -26.29418659 475.63902855 C-26.29792183 473.67700806 -26.30252284 471.71498906 -26.30791724 469.75297242 C-26.32017825 464.35254795 -26.31988312 458.95218529 -26.31752849 453.55175006 C-26.3171211 447.73089823 -26.32815194 441.91006642 -26.33764362 436.08922386 C-26.35427151 424.68180607 -26.35975397 413.27440894 -26.36086838 401.86698004 C-26.36181799 392.5965689 -26.36592393 383.32616459 -26.37226963 374.05575562 C-26.37405863 371.38800456 -26.37584433 368.72025351 -26.37761939 366.05250245 C-26.37806148 365.3893052 -26.37850358 364.72610795 -26.37895907 364.04281381 C-26.39126886 345.38621969 -26.39916006 326.72962789 -26.39827251 308.07302952 C-26.39824136 307.36951986 -26.3982102 306.66601021 -26.3981781 305.94118208 C-26.39801188 302.37544245 -26.3978138 298.80970283 -26.39760868 295.2439632 C-26.39756879 294.5357852 -26.3975289 293.8276072 -26.3974878 293.09796926 C-26.39740693 291.66586046 -26.39732333 290.23375167 -26.39723702 288.80164287 C-26.39601146 266.51949147 -26.41102498 244.23740094 -26.43838215 221.95526695 C-26.4690999 196.9256086 -26.48631483 171.89599024 -26.4844557 146.86631185 C-26.48371438 133.61202826 -26.48931453 120.3578104 -26.51081181 107.10354233 C-26.52899626 95.8192955 -26.53339343 84.53514843 -26.51979296 73.25089332 C-26.51324957 67.49196487 -26.51319566 61.73322794 -26.53049946 55.97431755 C-26.54617443 50.70335954 -26.54342358 45.43274581 -26.52593119 40.16179649 C-26.522849 38.25400852 -26.52653934 36.34619522 -26.53765135 34.43843713 C-26.55175389 31.84572525 -26.54120117 29.25422407 -26.52453899 26.66155338 C-26.53447535 25.9203303 -26.54441171 25.17910722 -26.55464917 24.41542283 C-26.46519399 17.83449364 -24.20460468 12.71172594 -19.8431673 7.79633141 C-18.72748371 6.84887047 -18.72748371 6.84887047 -17.58926105 5.88226891 C-16.84805012 5.23515953 -16.10683918 4.58805016 -15.3431673 3.92133141 C-10.41010122 0.3775099 -5.9433739 -0.03265107 0 0 Z M-7.02676105 19.25726891 C-18.45721041 45.9283174 -10.02676105 77.24003265 -10.02676105 106.25726891 C148.37323895 106.25726891 306.77323895 106.25726891 469.97323895 106.25726891 C474.18846362 61.58417502 474.18846362 61.58417502 466.97323895 19.25726891 C462.07473596 16.31452119 457.54317074 15.8249783 451.94746685 15.87974548 C451.16483522 15.87538516 450.38220359 15.87102484 449.57585585 15.86653239 C446.9554541 15.85559101 444.33558015 15.86599284 441.7151823 15.87631798 C439.81671886 15.87286098 437.91825742 15.86809613 436.01980019 15.86213624 C430.80435138 15.84960247 425.58906708 15.85580749 420.37361765 15.8650949 C414.74845764 15.87187529 409.12332617 15.86140917 403.49817181 15.85315514 C392.47903651 15.83980484 381.45996246 15.84270133 370.44082475 15.85139306 C361.4865263 15.85816408 352.53224503 15.85908884 343.57794476 15.85582161 C341.66739973 15.85513206 341.66739973 15.85513206 339.71825784 15.85442858 C337.1308887 15.85346942 334.54351955 15.85249678 331.95615041 15.85151081 C308.37792939 15.84319714 284.79974943 15.85182345 261.22153531 15.8675386 C239.69767122 15.88177541 218.17386038 15.88050152 196.64999676 15.86615562 C172.46742932 15.85009154 148.28489974 15.84377712 124.10232544 15.85299242 C121.52439468 15.85394808 118.94646391 15.85489119 116.36853313 15.85582161 C115.10009231 15.85628444 113.83165149 15.85674726 112.52477306 15.85722411 C103.57968045 15.85981601 94.63460671 15.8554387 85.68951702 15.84838295 C74.79067134 15.83997521 63.89189049 15.84223284 52.99305224 15.85822518 C47.4307182 15.86611763 41.8684923 15.86918284 36.30615902 15.85927773 C31.21609958 15.85035059 26.12624874 15.85523107 21.03620827 15.87121038 C19.19310402 15.87456658 17.34998222 15.87284534 15.50688922 15.86558302 C13.00401169 15.85647607 10.50185104 15.86580126 7.99901104 15.87974548 C7.28140216 15.87272198 6.56379329 15.86569849 5.82443869 15.85846215 C0.90532801 15.91333329 -2.7972367 16.71640628 -7.02676105 19.25726891 Z M-10.02676105 123.25726891 C-10.08863605 183.00789391 -10.15051105 242.75851891 -10.21426105 304.31976891 C-10.24157307 323.20719322 -10.26888508 342.09461754 -10.29702473 361.55438805 C-10.30705616 378.44048799 -10.30705616 378.44048799 -10.31309223 395.32658958 C-10.31589452 402.86547704 -10.32691877 410.40429812 -10.34348774 417.94316673 C-10.36256012 426.63390499 -10.37127442 435.32457939 -10.36709591 444.01533874 C-10.36528566 448.4627148 -10.36819116 452.90994804 -10.38440645 457.35729802 C-10.39897751 461.37805895 -10.39974948 465.39857574 -10.38946438 469.41934776 C-10.38819096 470.87361217 -10.39200686 472.32789173 -10.40140879 473.78212631 C-10.75767389 484.04513232 -10.75767389 484.04513232 -7.02676105 493.25726891 C-1.95642844 495.93995087 2.26021084 496.69096005 7.99901104 496.63479233 C8.78164267 496.63915265 9.5642743 496.64351297 10.37062204 496.64800543 C12.99102379 496.6589468 15.61089774 496.64854497 18.23129559 496.63821983 C20.12975903 496.64167683 22.02822047 496.64644168 23.9266777 496.65240157 C29.14212651 496.66493534 34.35741081 496.65873032 39.57286024 496.64944291 C45.19802025 496.64266253 50.82315172 496.65312864 56.44830608 496.66138268 C67.46744138 496.67473298 78.48651543 496.67183648 89.50565314 496.66314475 C98.45995159 496.65637373 107.41423286 496.65544897 116.36853313 496.6587162 C118.27907816 496.65940575 118.27907816 496.65940575 120.22822005 496.66010923 C122.81558919 496.66106839 125.40295834 496.66204103 127.99032748 496.663027 C151.5685485 496.67134067 175.14672846 496.66271436 198.72494258 496.64699921 C220.24880667 496.6327624 241.77261751 496.63403629 263.29648113 496.64838219 C287.47904857 496.66444627 311.66157815 496.67076069 335.84415245 496.6615454 C338.42208321 496.66058973 341.00001398 496.65964662 343.57794476 496.6587162 C344.84638558 496.65825338 346.1148264 496.65779055 347.42170483 496.6573137 C356.36679744 496.6547218 365.31187118 496.65909911 374.25696087 496.66615486 C385.15580655 496.6745626 396.0545874 496.67230497 406.95342565 496.65631263 C412.51575969 496.64842018 418.07798559 496.64535497 423.64031887 496.65526009 C428.73037831 496.66418722 433.82022915 496.65930675 438.91026962 496.64332743 C440.75337387 496.63997124 442.59649567 496.64169247 444.43958867 496.64895479 C446.9424662 496.65806174 449.44462685 496.64873655 451.94746685 496.63479233 C453.02388016 496.64532758 453.02388016 496.64532758 454.1220392 496.65607566 C459.17509366 496.59971042 462.57402143 495.58486798 466.97323895 493.25726891 C471.373411 486.8841366 470.38225402 479.09786067 470.33400249 471.6346035 C470.33531572 470.13488158 470.33794821 468.63516033 470.34178448 467.13544273 C470.34850581 463.01411007 470.33648364 458.89301172 470.32145713 454.7717088 C470.30835217 450.25926174 470.3127413 445.74682539 470.31491089 441.23436451 C470.31650559 432.47585443 470.30265635 423.71743665 470.2834069 414.95895028 C470.26180664 404.82754575 470.25942264 394.69619666 470.25705242 384.56476402 C470.24130149 357.81641769 470.19941815 331.06809191 470.16073895 304.31976891 C470.09886395 244.56914391 470.03698895 184.81851891 469.97323895 123.25726891 C311.57323895 123.25726891 153.17323895 123.25726891 -10.02676105 123.25726891 Z " fill="#000000" transform="translate(26.026761054992676,-0.25726890563964844)"/>
<path d="M0 0 C0.92503728 -0.00453111 1.85007455 -0.00906223 2.80314326 -0.01373065 C5.89825246 -0.02637597 8.99318572 -0.02475417 12.08831787 -0.02310181 C14.30940477 -0.029087 16.53048958 -0.03589253 18.75157166 -0.04345703 C24.78269831 -0.06112601 30.81376822 -0.06581282 36.84491825 -0.0670886 C40.6143382 -0.06851036 44.38374373 -0.07278045 48.1531601 -0.07808304 C60.62868102 -0.09563207 73.10416969 -0.10492292 85.57970038 -0.10342209 C86.25172872 -0.10334218 86.92375706 -0.10326227 87.6161499 -0.10317993 C88.28900334 -0.10309817 88.96185678 -0.10301641 89.65509972 -0.10293217 C100.55381893 -0.10211968 111.4523998 -0.12124943 122.35107902 -0.14945666 C133.55426313 -0.17822208 144.75739667 -0.1916291 155.96062255 -0.19026911 C162.24533897 -0.1897596 168.52989885 -0.19543721 174.81458282 -0.21662521 C180.72766086 -0.23601599 186.64043317 -0.23612603 192.55352211 -0.22159195 C194.71983347 -0.21950375 196.88616401 -0.22420532 199.05244255 -0.23631287 C202.01798438 -0.25180976 204.98247787 -0.24242751 207.94799805 -0.22705078 C209.22303424 -0.24248147 209.22303424 -0.24248147 210.52382874 -0.25822389 C217.83887787 -0.17484626 224.49452096 1.79053894 230.34906006 6.27523804 C235.8566513 12.69483902 238.10432032 18.36734995 239.16546631 26.70492554 C238.21440753 34.44926128 235.8210691 41.51815674 229.78745371 46.71474844 C223.35287186 51.565872 216.91774975 52.85795228 209.01924133 52.78208923 C208.08347368 52.78903476 207.14770602 52.79598029 206.18358177 52.80313629 C203.06995533 52.82132995 199.95709741 52.81116315 196.84344482 52.8008728 C194.60220777 52.80793511 192.36097549 52.81668143 190.11975098 52.82698059 C184.04741368 52.84944889 177.97533736 52.84654074 171.90297437 52.83765912 C166.82840714 52.8325428 161.75388868 52.83984703 156.67932647 52.84713119 C144.02183981 52.86509265 131.36450877 52.85872784 118.70703834 52.84096139 C107.73086795 52.82626699 96.75497138 52.84089301 85.77883626 52.86973155 C74.48965417 52.89917015 63.20059507 52.90957743 51.91136497 52.90054935 C45.58084541 52.89562491 39.25053863 52.89781007 32.92004585 52.91833687 C26.96662992 52.93671761 21.01372203 52.93070531 15.06033325 52.90613747 C12.87951345 52.90113737 10.69865477 52.9045984 8.51786613 52.91728592 C-14.06252198 53.03823101 -14.06252198 53.03823101 -22.14453793 45.527215 C-27.53695206 39.89431681 -29.43424898 34.51677336 -29.64703369 26.82992554 C-29.42140146 18.27552096 -27.39182044 12.52953291 -21.27203369 6.26742554 C-14.39989058 1.00365634 -8.38880423 -0.03024848 0 0 Z M-11.27203369 21.26742554 C-12.72351272 24.17038359 -12.64442395 26.04004333 -12.27203369 29.26742554 C-9.66004368 33.59939513 -9.66004368 33.59939513 -5.34933949 35.82112443 C-2.96063994 36.04057472 -0.63707058 36.06230594 1.76153564 36.02259827 C2.67291212 36.03125264 3.58428859 36.03990702 4.52328253 36.04882365 C7.57845131 36.07042209 10.63180114 36.04911466 13.68695068 36.02792358 C15.87660086 36.03441631 18.06624471 36.04347698 20.25587463 36.05491638 C26.20429205 36.07802011 32.1520688 36.0632646 38.10046577 36.040447 C44.32148291 36.02155164 50.54245646 36.03268608 56.76348877 36.03935242 C67.8806887 36.04610215 78.99763715 36.02332695 90.11477226 35.98841301 C100.19313279 35.95752019 110.27116237 35.95514909 120.34954834 35.97421265 C133.30367399 35.99868756 146.25755565 35.99774289 159.21168518 35.97544289 C164.1589929 35.96745004 169.10614842 35.96945666 174.05345154 35.97946739 C179.87797827 35.99000663 185.70193634 35.97592519 191.52637291 35.94272423 C193.66573732 35.93450559 195.80515373 35.93481434 197.94451332 35.94420242 C200.86178098 35.95559951 203.77727125 35.93629727 206.69439697 35.90907288 C207.96895697 35.92478011 207.96895697 35.92478011 209.26926565 35.94080466 C213.59203054 35.86548046 215.23010574 35.66340565 218.73006439 32.87966633 C220.86543227 30.0876899 221.72796631 28.77084109 221.72796631 25.26742554 C220.61769481 22.2872231 219.76387451 20.03663106 217.16702175 18.10835838 C213.46044826 16.8304131 209.76617446 16.98579193 205.89057922 17 C204.98822428 16.99546889 204.08586934 16.99093777 203.15617031 16.98626935 C200.12609549 16.9735875 197.09619953 16.97524816 194.06610107 16.97689819 C191.89630908 16.97091537 189.72651922 16.9641104 187.55673218 16.95654297 C181.65804976 16.93885222 175.75942534 16.93418633 169.86071897 16.9329114 C164.94003336 16.93101401 160.01936131 16.92365845 155.09868091 16.91656721 C143.49227363 16.90027448 131.88589738 16.89539912 120.27947998 16.89682007 C108.29722284 16.89802221 96.31521253 16.87690789 84.33299595 16.84533274 C74.05265883 16.81920532 63.77238061 16.80845127 53.49201053 16.80973089 C47.34882756 16.8102415 41.20580447 16.80450351 35.0626545 16.78337479 C29.28668555 16.7640516 23.51103002 16.76382742 17.7350502 16.77840805 C15.6134044 16.78050451 13.49173929 16.77574576 11.37012672 16.76368713 C8.47715853 16.74830732 5.58528086 16.75749474 2.69233704 16.77294922 C1.84973015 16.76266209 1.00712326 16.75237497 0.13898283 16.74177611 C-4.92018287 16.80163847 -7.61213648 17.43960085 -11.27203369 21.26742554 Z " fill="#000000" transform="translate(200.27203369140625,282.7325744628906)"/>
<path d="M0 0 C0.7960114 -0.00507454 1.59202279 -0.01014909 2.41215575 -0.0153774 C3.2808194 -0.01587516 4.14948304 -0.01637292 5.04446983 -0.01688576 C5.97188181 -0.02126801 6.89929379 -0.02565027 7.85480917 -0.03016531 C10.96990116 -0.04354544 14.08496486 -0.04973044 17.20007896 -0.0558567 C19.43072195 -0.0637583 21.66136365 -0.07202729 23.89200401 -0.08063698 C31.2243382 -0.10685085 38.55667808 -0.12216421 45.88904381 -0.13642311 C48.41356345 -0.14178309 50.93808305 -0.1471606 53.46260262 -0.15255547 C63.96436651 -0.17418343 74.46613028 -0.19307097 84.96791077 -0.20417786 C87.69178458 -0.20710738 90.41565836 -0.21006906 93.13953209 -0.21308327 C94.15499468 -0.21420234 94.15499468 -0.21420234 95.19097166 -0.21534403 C106.15127003 -0.22799075 117.11140594 -0.26120638 128.07162841 -0.3028851 C139.33350376 -0.34535859 150.59529928 -0.36847183 161.85726392 -0.37409842 C168.17671713 -0.37775074 174.49589484 -0.38976007 180.81527138 -0.42220116 C186.76282458 -0.45229581 192.70993578 -0.45858827 198.6575489 -0.4468174 C200.83677125 -0.44659678 203.01601419 -0.45489169 205.19516563 -0.47247124 C227.50228409 -0.64258607 227.50228409 -0.64258607 236.08239746 7.01876831 C241.45961216 12.32447295 243.82415139 18.43505569 244.06482506 25.93779564 C243.61319789 34.31026856 241.33123901 40.22309009 235.16248131 45.94951439 C228.77347825 51.4954325 222.69928272 52.58168871 214.53800011 52.52469444 C213.60731929 52.53007998 212.67663847 52.53546552 211.7177552 52.54101425 C208.60951377 52.55528383 205.50169882 52.54819246 202.39343834 52.54106712 C200.16072816 52.54677123 197.92802089 52.55373564 195.69531822 52.56186485 C189.63742835 52.57980752 183.57968324 52.57862565 177.52177477 52.57292247 C172.46213293 52.56983201 167.40251896 52.57592154 162.34288108 52.58196121 C149.72258515 52.59681165 137.10237639 52.59318991 124.482087 52.58109791 C113.53425124 52.57116835 102.58658457 52.58410273 91.63877489 52.6080321 C80.38470181 52.63244463 69.13070537 52.64162622 57.87659919 52.63537937 C51.56343486 52.63200967 45.25041018 52.63442587 38.9372654 52.6516304 C32.99954047 52.66710553 27.0621381 52.66313729 21.12442589 52.64432526 C18.94802347 52.6406409 16.77159712 52.64374333 14.59521675 52.65421104 C11.61841736 52.6674329 8.64268388 52.65586229 5.66592979 52.63821983 C4.80978399 52.64782484 3.95363819 52.65742985 3.07154858 52.66732591 C-5.66676603 52.56116278 -12.86611065 49.29592243 -19.02501869 43.13701439 C-24.19947764 35.77336127 -24.63591553 28.92714115 -24.02501869 20.13701439 C-22.68224196 13.38899235 -18.80644941 7.83803633 -13.22033119 3.84795189 C-8.82767523 1.22744039 -5.06239326 0.01720744 0 0 Z M-6.02501869 21.13701439 C-7.45164088 23.99025876 -7.33535737 25.97155988 -7.02501869 29.13701439 C-5.22508095 31.83692101 -3.94124569 33.67890089 -1.02501869 35.13701439 C1.86094145 35.24390767 4.72324216 35.28923317 7.60982323 35.29091454 C8.51455287 35.29529679 9.41928252 35.29967904 10.35142821 35.30419409 C13.40148506 35.31761362 16.451513 35.32376799 19.50159264 35.32988548 C21.6809407 35.33778389 23.86028744 35.34605267 26.0396328 35.35466576 C33.21207996 35.38091338 40.38453305 35.39619487 47.55701256 35.41045189 C50.02282465 35.4158102 52.48863669 35.42118771 54.9544487 35.42658424 C65.20822741 35.44821585 75.46200452 35.46695426 85.71580029 35.47820663 C88.37714517 35.48114603 91.03849002 35.48409804 93.69983482 35.48711205 C94.36130875 35.4878581 95.02278267 35.48860415 95.70430126 35.4893728 C105.75594477 35.50124241 115.8074421 35.5301096 125.85901451 35.5691433 C137.52620828 35.61430475 149.19328098 35.64215103 160.86056346 35.6481272 C167.0384842 35.65178733 173.21612392 35.66387926 179.39396667 35.69622993 C185.20441139 35.72622033 191.0144037 35.73265452 196.82490921 35.72084618 C198.95946625 35.72062469 201.09404374 35.72899109 203.22852898 35.74650002 C206.13929855 35.76908025 209.04841216 35.76094835 211.95918846 35.7450161 C212.80705054 35.75889819 213.65491261 35.77278027 214.52846748 35.78708303 C218.82796611 35.7289603 220.47702804 35.52818981 223.97206211 32.78260803 C226.32675279 29.67237039 227.05468191 28.04234395 226.97498131 24.13701439 C224.7277699 19.89493299 224.7277699 19.89493299 220.97498131 17.13701439 C218.0889577 17.03229804 215.22670118 16.98922062 212.34013939 16.98984337 C211.43540974 16.98616668 210.5306801 16.98248999 209.59853441 16.97870189 C206.54847395 16.96763525 203.49844753 16.96381619 200.44836998 16.96001244 C198.26902215 16.95375009 196.08967539 16.9471035 193.91032982 16.94009972 C187.9764212 16.92266998 182.04252064 16.91213283 176.10859275 16.90389419 C172.4042317 16.89874881 168.69987318 16.89267291 164.99551392 16.88638306 C153.41390729 16.86732652 141.83230707 16.85309568 130.25068778 16.84477109 C128.91716778 16.84380256 127.58364778 16.84282831 126.25012779 16.84184837 C125.58865387 16.84136463 124.92717994 16.84088089 124.24566136 16.84038249 C114.19404262 16.83259648 104.14252226 16.8107536 94.0909481 16.78032494 C82.42375664 16.7451204 70.75664503 16.72373344 59.08939916 16.71999007 C52.91152368 16.71763512 46.73382448 16.70861669 40.55599594 16.6835289 C34.74559546 16.66031476 28.93548817 16.65598816 23.12505341 16.66629028 C20.99050359 16.66678736 18.85593966 16.66041667 16.72143364 16.64673424 C13.810859 16.62911855 10.90134834 16.63607065 7.99077415 16.6492672 C7.14291208 16.63829795 6.29505 16.6273287 5.42149514 16.61602706 C0.34855598 16.67168992 -2.35720959 17.29397569 -6.02501869 21.13701439 Z " fill="#000000" transform="translate(195.0250186920166,361.8629856109619)"/>
<path d="M0 0 C1.38149016 -0.0083016 1.38149016 -0.0083016 2.7908892 -0.0167709 C5.84850017 -0.0302836 8.90528148 -0.01545934 11.96287537 -0.00050354 C14.16647181 -0.00429009 16.37006586 -0.0097929 18.57365417 -0.01687622 C24.53845392 -0.03080323 30.50296433 -0.01968055 36.46774793 -0.00316501 C42.71888772 0.01071602 48.97001123 0.004222 55.22116089 0.0007019 C65.7163251 -0.00199759 76.21139421 0.01136554 86.70652771 0.03465271 C97.48977406 0.05857624 108.27286896 0.0656534 119.05613708 0.05516052 C132.07434677 0.04251546 145.092477 0.04505764 158.11068535 0.06081963 C163.07418899 0.06656977 168.03764195 0.06650438 173.00114632 0.06175423 C178.84777601 0.0569735 184.69419677 0.06713176 190.54078674 0.08870888 C192.68332146 0.09426169 194.82587632 0.09475592 196.9684124 0.08975601 C199.89893069 0.08377607 202.82881595 0.09636035 205.75927734 0.11352539 C207.02291724 0.10451032 207.02291724 0.10451032 208.31208521 0.09531313 C216.3793763 0.18090213 223.7402027 2.00939035 229.74583435 7.63792419 C234.43185116 13.19819787 237.56539855 20.16212775 237.31614685 27.50120544 C236.32202877 37.17126315 232.61278121 42.63101527 225.4138031 48.98558044 C220.15846168 52.78273588 215.30212383 52.79264424 209.05047607 52.77536011 C208.11404257 52.78059679 207.17760906 52.78583346 206.21279877 52.79122883 C203.07313272 52.8062374 199.93362953 52.80693418 196.79393005 52.80760193 C194.54343388 52.81522291 192.29294032 52.82365031 190.04244995 52.83282471 C183.92656215 52.85478459 177.81072435 52.86357082 171.69480157 52.86865115 C167.87295644 52.87229345 164.05112442 52.87853291 160.22928429 52.88565254 C149.63911955 52.90510924 139.04896572 52.92162143 128.45878315 52.92452908 C127.78142379 52.92471665 127.10406443 52.92490422 126.40617902 52.92509747 C125.03311328 52.92546371 123.66004754 52.92582741 122.2869818 52.92618858 C121.60542707 52.92637139 120.92387233 52.9265542 120.22166443 52.92674255 C119.19807825 52.92701338 119.19807825 52.92701338 118.15381356 52.92728967 C107.10303927 52.93082936 96.05246009 52.95783983 85.00175343 52.99524044 C73.64490509 53.03336821 62.28818495 53.05224628 50.93125981 53.05298859 C44.55929765 53.05378132 38.18758715 53.06251841 31.81568336 53.09098625 C25.81967549 53.11717498 19.82412775 53.1193671 13.82808876 53.10333061 C11.63113399 53.1015167 9.43415273 53.10820149 7.2372551 53.12414932 C-15.35840048 53.27813535 -15.35840048 53.27813535 -23.55575085 45.79163265 C-28.7569101 40.46647462 -30.80078376 34.46827858 -31.12135315 27.12620544 C-30.87139031 19.60648988 -28.62222543 13.25217464 -23.55885315 7.62620544 C-16.73879598 1.62007562 -8.86921982 -0.10139173 0 0 Z M-12.68385315 21.50120544 C-14.34645585 24.82641085 -14.03344442 28.14168385 -13.12135315 31.68870544 C-10.55778957 34.92102473 -6.62678513 36.24000692 -2.62557209 36.77791095 C-0.30621594 36.88618456 1.99592518 36.90119896 4.31774902 36.88215637 C5.64344136 36.88917633 5.64344136 36.88917633 6.99591535 36.89633811 C9.94534297 36.90826534 12.894304 36.89883974 15.84373474 36.88938904 C17.96308665 36.89345571 20.08243645 36.89879813 22.20178223 36.90531921 C27.94957411 36.91898629 33.6972043 36.91369681 39.44499898 36.90418196 C45.46133308 36.89658326 51.47765339 36.90363147 57.49398804 36.90834045 C67.59594711 36.91379696 77.69784035 36.90660866 87.79978943 36.89231873 C99.47928325 36.87598804 111.15862 36.88128424 122.83811003 36.89779794 C132.86715034 36.91141049 142.89614335 36.91333372 152.92518991 36.90548193 C158.91462081 36.90080473 164.90397786 36.90018202 170.89340401 36.9100914 C176.52329173 36.91875551 182.15297681 36.91274913 187.78284264 36.89540863 C189.84923593 36.89144104 191.91564626 36.89258248 193.98203278 36.89919662 C196.80209506 36.90739116 199.62150747 36.89711567 202.44152832 36.88215637 C203.25972127 36.88884854 204.07791421 36.8955407 204.92090088 36.90243566 C209.76362723 36.85258871 213.14926883 36.23627818 217.31614685 33.50120544 C219.39187126 29.9984205 220.57216896 27.87732428 219.81614685 23.81370544 C217.90751043 20.87122429 216.29511359 19.39839171 213.31614685 17.50120544 C210.34332958 16.92253005 207.42431105 16.96107765 204.40319824 16.99327087 C203.50477799 16.98703091 202.60635774 16.98079095 201.68071264 16.9743619 C198.66968236 16.95840475 195.65945855 16.97104698 192.64842224 16.98362732 C190.48995491 16.97820738 188.33149128 16.97108545 186.17303467 16.96238708 C180.30938646 16.94413458 174.44601942 16.95122965 168.58236623 16.96390343 C162.44856963 16.97402233 156.31479729 16.96464071 150.18099976 16.95835876 C139.87875542 16.95107859 129.57662574 16.96067926 119.2743988 16.97972107 C107.36201156 17.00148465 95.4498982 16.99444351 83.53751761 16.97241545 C73.31317998 16.95426517 63.08892482 16.95170151 52.86457628 16.96217012 C46.75660649 16.9684078 40.64876544 16.96923314 34.54080391 16.95602417 C28.79762004 16.94447203 23.05478931 16.95248018 17.3116436 16.9756012 C15.20332806 16.98089188 13.09498282 16.9793684 10.98667908 16.97055054 C8.10941075 16.95962579 5.23327518 16.973322 2.3560791 16.99327087 C1.10339763 16.97988654 1.10339763 16.97988654 -0.17459053 16.96623182 C-5.45837658 17.03732885 -8.49319515 17.98885424 -12.68385315 21.50120544 Z " fill="#000000" transform="translate(201.68385314941406,203.49879455566406)"/>
<path d="M0 0 C2.41025348 0.01389406 4.8166334 -0.0203265 7.2265625 -0.05834961 C17.61900131 -0.10937478 24.81917361 1.22483577 33.2265625 7.76391602 C38.59846602 14.67064911 41.24497307 20.83080959 40.8359375 29.68188477 C39.71322534 37.38493765 35.90002746 44.22701733 29.6159668 48.91894531 C21.72190546 53.58357792 13.81469463 53.30545434 4.91870117 53.17333984 C2.35289056 53.13893382 -0.20948236 53.15274547 -2.77539062 53.17211914 C-13.26104284 53.16339092 -21.12381624 52.49788606 -29.3984375 45.51391602 C-34.18188315 40.34112014 -36.17730932 33.90381691 -37.0234375 27.01391602 C-35.96229152 18.67634043 -33.71462249 13.00382949 -28.20703125 6.58422852 C-19.59674436 -0.01143089 -10.40233679 -0.08365071 0 0 Z M-17.5859375 20.57641602 C-19.14681558 23.27247815 -19.60113562 24.96849122 -19.5234375 28.07641602 C-18.21463181 31.56656453 -16.45427135 33.20693339 -13.5859375 35.57641602 C-10.20179088 36.32439726 -10.20179088 36.32439726 -6.4921875 36.20532227 C-5.48847107 36.2089402 -5.48847107 36.2089402 -4.46447754 36.21263123 C-3.05584765 36.21165581 -1.64717799 36.1983345 -0.23876953 36.17333984 C1.90856057 36.13900399 4.05177499 36.15269527 6.19921875 36.17211914 C7.57293405 36.16522012 8.94663881 36.15554721 10.3203125 36.14282227 C11.56103516 36.1319458 12.80175781 36.12106934 14.08007812 36.10986328 C17.97305469 35.48697563 19.63440179 34.317328 22.4140625 31.57641602 C23.84068469 28.72317164 23.72440118 26.74187053 23.4140625 23.57641602 C21.61412476 20.8765094 20.3302895 19.03452952 17.4140625 17.57641602 C13.18607869 17.34162684 8.95418453 17.34800631 4.72045898 17.33618164 C2.61987339 17.32650041 0.52027675 17.29548917 -1.58007812 17.26391602 C-2.9218692 17.25738316 -4.26366727 17.2521338 -5.60546875 17.24829102 C-6.82339111 17.23894531 -8.04131348 17.22959961 -9.29614258 17.2199707 C-12.87910098 17.60817992 -14.73268683 18.41565787 -17.5859375 20.57641602 Z " fill="#000000" transform="translate(109.5859375,282.423583984375)"/>
<path d="M0 0 C2.51279572 0.02902851 5.02348422 0.02056819 7.53637695 0.00756836 C9.15552768 0.0138056 10.77467185 0.02219644 12.39379883 0.03295898 C13.13360489 0.03002335 13.87341095 0.02708771 14.63563538 0.02406311 C21.73451249 0.15068605 28.17985783 2.04266913 33.56958008 6.87280273 C39.37817461 13.56745406 41.31098702 20.64582415 41.23754883 29.32202148 C40.64687433 35.83562384 37.63860049 41.90699909 32.95239258 46.46655273 C23.76911265 52.34385189 16.08769218 52.74162317 5.46728516 52.81665039 C3.76141646 52.83313221 2.05561457 52.86031858 0.35009766 52.89868164 C-10.5760163 53.14282875 -19.55951323 53.23333231 -28.16674805 45.58300781 C-33.77212361 40.02203574 -35.51090887 33.68346994 -36.48510742 26.02905273 C-35.53580015 18.29897922 -33.15712172 11.15762954 -27.07250977 6.01953125 C-18.7272339 -0.38079426 -10.089585 -0.12736632 0 0 Z M-18.04760742 22.46655273 C-19.29437748 25.3636198 -19.29437748 25.3636198 -19.04760742 28.46655273 C-16.80039602 32.70863414 -16.80039602 32.70863414 -13.04760742 35.46655273 C-8.67748459 35.72496062 -4.30355044 35.73758655 0.07324219 35.76171875 C2.24649497 35.77890723 4.41821604 35.8227908 6.59106445 35.86694336 C7.97842308 35.87707299 9.36579462 35.88558825 10.75317383 35.89233398 C12.01299072 35.9069165 13.27280762 35.92149902 14.57080078 35.93652344 C18.53128718 35.38609846 20.1455907 34.25454096 22.95239258 31.46655273 C24.37901476 28.61330836 24.26273126 26.63200724 23.95239258 23.46655273 C22.15245483 20.76664612 20.86861958 18.92466623 17.95239258 17.46655273 C13.58260346 17.18499875 9.2091737 17.1529066 4.83154297 17.11645508 C3.375651 17.09991269 1.91983968 17.07264438 0.46435547 17.03442383 C-1.64031865 16.9794715 -3.74309249 16.95775657 -5.84838867 16.94311523 C-7.73811401 16.91338623 -7.73811401 16.91338623 -9.66601562 16.88305664 C-13.94775832 17.62187442 -15.37321021 19.11684631 -18.04760742 22.46655273 Z " fill="#000000" transform="translate(109.047607421875,361.533447265625)"/>
<path d="M0 0 C2.20798883 -0.00435692 4.4139478 -0.04069496 6.62158203 -0.07861328 C16.67383792 -0.15933469 25.95980557 0.67315709 33.91455078 7.43310547 C39.20427427 13.37132872 41.72952799 21.34787345 41.29345703 29.25341797 C40.13907567 36.97779694 36.30844524 43.95348192 30.14379883 48.81689453 C22.16775922 53.46860541 13.96061 53.09666376 4.99951172 52.9675293 C2.35032457 52.93308302 -0.29554155 52.94694393 -2.94482422 52.96630859 C-4.6505674 52.95941179 -6.35630209 52.9497409 -8.06201172 52.93701172 C-8.84242828 52.94197159 -9.62284485 52.94693146 -10.4269104 52.95204163 C-17.62158972 52.79970434 -23.7470645 50.24553417 -28.83544922 45.05810547 C-34.10622819 39.40312393 -35.99732939 32.9796935 -36.02294922 25.37060547 C-35.4050289 17.60630234 -31.9824436 11.10306463 -26.31982422 5.76513672 C-18.49525409 -0.24427412 -9.45079729 -0.00208397 0 0 Z M-18.02294922 22.37060547 C-19.48316728 25.7205175 -19.14076462 27.02408957 -17.96044922 30.49560547 C-15.50841583 34.13410662 -14.16535715 34.85584436 -10.02294922 36.37060547 C-5.82888723 36.78007278 -1.67084083 36.74370408 2.53955078 36.68310547 C3.66296875 36.68632812 4.78638672 36.68955078 5.94384766 36.69287109 C14.89382979 36.70374894 14.89382979 36.70374894 22.35205078 32.18310547 C24.2740906 29.39786418 24.2740906 29.39786418 23.97705078 25.80810547 C22.90638089 22.12767771 21.94874065 20.71193688 18.97705078 18.37060547 C14.78258016 16.27337016 9.3799294 17.06177667 4.765625 17.02050781 C3.41356135 17.00399159 2.06158346 16.97675781 0.70996094 16.93847656 C-9.95099558 16.39000598 -9.95099558 16.39000598 -18.02294922 22.37060547 Z " fill="#000000" transform="translate(109.02294921875,203.62939453125)"/>
<path d="M0 0 C5.66141948 5.91875673 8.05333999 11.66373479 8.375 19.875 C8.04038082 28.19526074 5.55210963 34.57654739 -0.5625 40.3125 C-7.80164442 45.79622957 -15.27845781 46.94922413 -24.25 45.875 C-30.6175388 44.00501496 -36.21276558 40.80932463 -40.05078125 35.28125 C-43.81542966 28.0437864 -45.79799389 22.02566169 -44.25 13.875 C-41.77546244 6.25676078 -38.44038595 0.89905519 -31.3984375 -3.078125 C-20.02943128 -8.61793167 -10.26331892 -6.7106316 0 0 Z M-26.25 14.875 C-27.22852887 17.60008912 -27.55878295 19.99302577 -27.25 22.875 C-25.48535939 25.73493478 -24.25434303 27.37282849 -21.25 28.875 C-16.17121075 29.39610971 -16.17121075 29.39610971 -11.875 27 C-9.18536448 23.48278432 -8.81532237 21.30871186 -9.25 16.875 C-11.04993774 14.17509338 -12.333773 12.3331135 -15.25 10.875 C-20.29934319 10.31396187 -22.86560159 11.00711611 -26.25 14.875 Z " fill="#000000" transform="translate(231.25,41.125)"/>
<path d="M0 0 C5.69669189 5.95563243 8.05369192 11.67349018 8.3125 19.9375 C7.95738259 28.33283972 6.12620997 33.96986505 -0.0625 39.75 C-7.68888668 45.77009645 -14.68528729 46.92873954 -24.25 45.875 C-31.63905847 43.76229267 -37.14485076 40.06675053 -41 33.375 C-44.64421853 26.64011513 -45.51908643 19.64097133 -43.53125 12.17578125 C-40.40612077 3.74549313 -35.14790939 -1.04258163 -27.25 -5.125 C-17.14085685 -8.39197919 -8.51097169 -5.56486611 0 0 Z M-26.625 15.625 C-27.57835544 19.05707959 -27.16654656 21.45322616 -26.25 24.875 C-23.50668103 28.02174823 -21.87507614 28.77454133 -17.75 29.4375 C-14.14290231 29.11957953 -14.14290231 29.11957953 -11.3125 26.8125 C-8.74525969 23.15612744 -8.69192335 21.259888 -9.25 16.875 C-10.11815139 14.19819989 -10.7525865 13.2180438 -13.0625 11.625 C-18.56597071 9.73809576 -22.97960158 10.98540201 -26.625 15.625 Z " fill="#000000" transform="translate(159.25,41.125)"/>
<path d="M0 0 C6.93655546 4.69649352 10.44036783 9.98097511 12.52734375 18.03515625 C13.78675795 25.1529691 12.07583754 32.27639451 8.2578125 38.37109375 C4.44020744 43.31501086 -0.81501423 47.63433708 -7 49 C-15.07196204 49.84692866 -22.06524106 49.46325156 -29 45 C-34.91572859 40.00449586 -39.24992842 33.79600764 -40.2578125 26.0078125 C-40.64497947 18.7548846 -38.68996429 11.86013444 -34.52734375 5.88671875 C-25.9179153 -3.61825309 -11.27572259 -6.47950521 0 0 Z M-21 17 C-22.89590453 19.49914688 -23.00468866 20.77963304 -22.9375 23.9375 C-21.72590847 27.89536565 -20.32410972 29.54304934 -17 32 C-12.5882483 32.7878128 -10.77807226 32.52975133 -7.0625 30 C-4.20882284 25.84919686 -4.2900154 23.9698922 -5 19 C-7.14255152 15.65761962 -8.60282498 15.10832046 -12.4375 14.0625 C-16.44403151 13.99220997 -17.94354518 14.46750886 -21 17 Z " fill="#000000" transform="translate(83,38)"/>
</svg>
